Coordinates
version=1
nRows=17
nColumns=24
inDegrees=yes

Units are S.I. units (second, meters, Newtons, ...)
Angles are in degrees.

endheader
time	pelvis_tilt	pelvis_list	pelvis_rotation	pelvis_tx	pelvis_ty	pelvis_tz	hip_flexion_r	hip_adduction_r	hip_rotation_r	knee_angle_r	ankle_angle_r	subtalar_angle_r	mtp_angle_r	hip_flexion_l	hip_adduction_l	hip_rotation_l	knee_angle_l	ankle_angle_l	subtalar_angle_l	mtp_angle_l	lumbar_extension	lumbar_bending	lumbar_rotation
      3.61000000	     -9.47051439	      7.95871301	      0.77452723	     -0.69800239	     -0.01729673	      0.69197303	     40.41201191	    -11.42267590	     -2.22958000	    -67.35143372	    -17.62647595	    -17.28756663	     25.88496188	      7.28257796	     12.26417791	     14.76060957	    -16.34171189	     16.89892188	    -14.39427877	    -39.79807290	      7.13143859	     -9.62086902	     -7.02056741
      3.61500000	     -9.40758839	      7.77595519	      0.89484265	     -0.69125116	     -0.01732037	      0.69156383	     40.85354020	    -11.19237634	     -2.28987053	    -66.45902860	    -17.34241303	    -17.45032732	     25.03970764	      6.60719363	     12.06081729	     14.93947684	    -16.04751307	     17.05354526	    -14.28457841	    -39.74547162	      6.97910469	     -9.39412393	     -7.30673067
      3.62000000	     -9.43368191	      7.62231160	      0.98106068	     -0.68448900	     -0.01749920	      0.69121582	     41.37471281	    -10.94897658	     -2.24007082	    -65.48844019	    -17.10401699	    -17.51920848	     24.68679795	      6.03829469	     11.88182460	     15.07914288	    -15.76308713	     17.16088918	    -14.19574791	    -39.67845125	      6.93766422	     -9.19393598	     -7.48721935
      3.62500000	     -9.24749770	      7.46229859	      1.12549076	     -0.67784705	     -0.01750126	      0.69085465	     41.61672292	    -10.75878232	     -2.29716896	    -64.46867707	    -16.77257220	    -17.59757445	     23.71896350	      5.26376269	     11.68836017	     15.19507695	    -15.52089904	     17.31605690	    -13.95397335	    -39.48218373	      6.62410997	     -8.99770443	     -7.86472496
      3.63000000	     -9.18223953	      7.32477776	      1.21627093	     -0.67111715	     -0.01770324	      0.69055833	     41.97231865	    -10.54016747	     -2.23600882	    -63.38561751	    -16.39521708	    -17.47471727	     23.08378019	      4.61599128	     11.51046028	     15.23307593	    -15.25892567	     17.43017228	    -13.76816577	    -39.24899679	      6.46761168	     -8.81653752	     -8.10367378
      3.63500000	     -9.11410215	      7.21228636	      1.30873689	     -0.66440690	     -0.01795237	      0.69025888	     42.29261581	    -10.35048805	     -2.15106734	    -62.22759365	    -16.04175119	    -17.34621184	     22.66799376	      3.97376399	     11.35547722	     15.23577466	    -15.00492247	     17.52812632	    -13.56717037	    -39.01500650	      6.30632346	     -8.65694239	     -8.33639599
      3.64000000	     -9.04880879	      7.10997922	      1.39036722	     -0.65769524	     -0.01824124	      0.68996433	     42.57920681	    -10.16330416	     -2.02614238	    -60.99426061	    -15.67220000	    -17.13402873	     22.38996462	      3.34165746	     11.20624192	     15.20442038	    -14.75871926	     17.63211101	    -13.33902036	    -38.79708541	      6.14852613	     -8.49677238	     -8.56104740
      3.64500000	     -9.03270223	      7.00761242	      1.46602138	     -0.65092355	     -0.01858338	      0.68966431	     42.87581633	     -9.97878136	     -1.88783927	    -59.67814242	    -15.33865073	    -16.86649421	     22.24957463	      2.75790736	     11.05458271	     15.12297934	    -14.49500357	     17.71750967	    -13.13774331	    -38.65042521	      6.05884428	     -8.33406435	     -8.76564680
      3.65000000	     -8.93760522	      6.91526610	      1.53961777	     -0.64419495	     -0.01887985	      0.68939559	     43.04042141	     -9.80333519	     -1.72150105	    -58.28948272	    -14.90178815	    -16.47117166	     22.12374295	      2.10469692	     10.90118940	     14.99781966	    -14.25927823	     17.83805393	    -12.80789678	    -38.45675210	      5.86571762	     -8.17985967	     -8.98960293
      3.65500000	     -8.76712743	      6.85314723	      1.59299419	     -0.63751751	     -0.01913224	      0.68922401	     43.09243102	     -9.64322010	     -1.53525814	    -56.84154886	    -14.42303971	    -16.07376986	     21.79571474	      1.38837637	     10.76197382	     14.75068599	    -14.03920269	     17.90442791	    -12.36089976	    -38.01205219	      5.57806968	     -8.06266223	     -9.22055455
      3.66000000	     -8.72874204	      6.77766075	      1.64610147	     -0.63073458	     -0.01955233	      0.68897731	     43.23823691	     -9.47614250	     -1.31695974	    -55.31446824	    -13.95032981	    -15.58128521	     21.74100458	      0.79983328	     10.61666761	     14.60805567	    -13.81806429	     18.00268627	    -11.93962968	    -37.67491653	      5.45685907	     -7.91313371	     -9.38223853
      3.66500000	     -8.63462737	      6.69885563	      1.68070828	     -0.62395978	     -0.01989415	      0.68877290	     43.27720993	     -9.30438596	     -1.10216864	    -53.70870235	    -13.50169909	    -15.08878045	     21.60296663	      0.17030175	     10.45527948	     14.30676491	    -13.60894160	     18.04050026	    -11.42258225	    -37.17009260	      5.26968444	     -7.75929965	     -9.58085109
      3.67000000	     -8.59494554	      6.62747641	      1.72294320	     -0.61712911	     -0.02034371	      0.68854884	     43.32825655	     -9.15071683	     -0.87933708	    -52.04021197	    -13.00739076	    -14.57921519	     21.53742847	     -0.40348700	     10.30140794	     14.07891740	    -13.41605326	     18.10573262	    -10.87258846	    -36.68078617	      5.14864594	     -7.60596880	     -9.71973597
      3.67500000	     -8.52512224	      6.54083812	      1.75139187	     -0.61030508	     -0.02073371	      0.68834997	     43.30204907	     -8.98213723	     -0.66041862	    -50.30394026	    -12.57639106	    -14.08053241	     21.35117214	     -0.98555645	     10.12035708	     13.69781352	    -13.24468827	     18.09947310	    -10.22102991	    -35.95565549	      4.99143312	     -7.43370088	     -9.91450947
      3.68000000	     -8.59778251	      6.40883078	      1.80391629	     -0.60334448	     -0.02134130	      0.68819334	     43.37827661	     -8.78149521	     -0.49424606	    -48.54306945	    -12.02350082	    -13.59031788	     20.60669431	     -1.38727372	      9.87206557	     13.12858436	    -13.09084742	     17.25158720	     -9.51666320	    -32.16460476	      5.01178137	     -7.21971716	    -10.04528335
      3.68500000	     -8.58579979	      6.36413960	      1.84806060	     -0.59641997	     -0.02185575	      0.68791535	     43.32920439	     -8.68938163	     -0.27712582	    -46.69421053	    -11.61025433	    -13.14619516	     20.79042283	     -1.91053967	      9.74227303	     12.87380042	    -12.94124990	     17.34764654	     -8.90148650	    -31.98760866	      4.92887260	     -7.07866665	    -10.18263241
      3.69000000	     -8.59273954	      6.28010141	      1.91643400	     -0.58944170	     -0.02238346	      0.68763758	     43.24844262	     -8.58412908	     -0.12138499	    -44.80577021	    -11.21302700	    -12.74305766	     20.75539488	     -2.38676721	      9.56034588	     12.55183486	    -12.84124745	     17.45873793	     -8.16185533	    -31.67368927	      4.86873914	     -6.90331311	    -10.35434498
